<mxfile modified="2021-03-14T09:01:36.543Z" host="app.diagrams.net" agent="5.0 (Windows NT 10.0; Win64; x64) AppleWebKit/537.36 (KHTML, like Gecko) Chrome/89.0.4389.82 Safari/537.36" etag="3MQDd1NbZoPyfE45XsEA" version="14.4.8" type="github">
  <diagram id="Ht1M8jgEwFfnCIfOTk4-" name="Page-1">
    <mxGraphModel dx="1422" dy="2360" grid="1" gridSize="10" guides="1" tooltips="1" connect="1" arrows="1" fold="1" page="1" pageScale="1" pageWidth="1169" pageHeight="827" math="0" shadow="0">
      <root>
        <mxCell id="0" />
        <mxCell id="1" parent="0" />
        <mxCell id="65f8HicS2MQvYyzbJBjk-3" value="Polling" style="text;strokeColor=#82b366;fillColor=#d5e8d4;html=1;fontSize=24;fontStyle=1;verticalAlign=middle;align=center;fontColor=#007FFF;sketch=1;fontFamily=Comic Sans MS;" vertex="1" parent="1">
          <mxGeometry x="610" y="-1590" width="100" height="28" as="geometry" />
        </mxCell>
        <mxCell id="65f8HicS2MQvYyzbJBjk-4" value="客户端" style="text;strokeColor=#82b366;fillColor=#d5e8d4;html=1;fontSize=24;fontStyle=1;verticalAlign=middle;align=center;fontColor=#007FFF;sketch=1;fontFamily=Comic Sans MS;" vertex="1" parent="1">
          <mxGeometry x="360" y="-1520" width="100" height="28" as="geometry" />
        </mxCell>
        <mxCell id="65f8HicS2MQvYyzbJBjk-5" value="服务器" style="text;strokeColor=#b85450;fillColor=#f8cecc;html=1;fontSize=24;fontStyle=1;verticalAlign=middle;align=center;fontColor=#FF3333;sketch=1;fontFamily=Comic Sans MS;" vertex="1" parent="1">
          <mxGeometry x="832.5" y="-1520" width="100" height="28" as="geometry" />
        </mxCell>
        <mxCell id="65f8HicS2MQvYyzbJBjk-7" value="" style="endArrow=classic;html=1;fontColor=#007FFF;strokeWidth=3;sketch=1;fontFamily=Comic Sans MS;" edge="1" parent="1">
          <mxGeometry width="50" height="50" relative="1" as="geometry">
            <mxPoint x="409.5" y="-1460" as="sourcePoint" />
            <mxPoint x="410" y="-890" as="targetPoint" />
          </mxGeometry>
        </mxCell>
        <mxCell id="65f8HicS2MQvYyzbJBjk-8" value="" style="endArrow=classic;html=1;fontColor=#007FFF;strokeWidth=3;sketch=1;fontFamily=Comic Sans MS;" edge="1" parent="1">
          <mxGeometry width="50" height="50" relative="1" as="geometry">
            <mxPoint x="893" y="-1460" as="sourcePoint" />
            <mxPoint x="900" y="-890" as="targetPoint" />
          </mxGeometry>
        </mxCell>
        <mxCell id="65f8HicS2MQvYyzbJBjk-9" value="" style="endArrow=classic;html=1;strokeWidth=3;fontColor=#FF3333;strokeColor=#66B2FF;sketch=1;fontFamily=Comic Sans MS;" edge="1" parent="1">
          <mxGeometry width="50" height="50" relative="1" as="geometry">
            <mxPoint x="420" y="-1440" as="sourcePoint" />
            <mxPoint x="880" y="-1410" as="targetPoint" />
          </mxGeometry>
        </mxCell>
        <mxCell id="65f8HicS2MQvYyzbJBjk-10" value="发送请求" style="text;strokeColor=none;fillColor=none;html=1;fontSize=24;fontStyle=1;verticalAlign=middle;align=center;rotation=5;sketch=1;fontFamily=Comic Sans MS;" vertex="1" parent="1">
          <mxGeometry x="601" y="-1470" width="82.5" height="38" as="geometry" />
        </mxCell>
        <mxCell id="65f8HicS2MQvYyzbJBjk-11" value="" style="endArrow=classic;html=1;strokeColor=#66B2FF;strokeWidth=3;fontColor=#FF3333;sketch=1;fontFamily=Comic Sans MS;" edge="1" parent="1">
          <mxGeometry width="50" height="50" relative="1" as="geometry">
            <mxPoint x="873.5" y="-1400" as="sourcePoint" />
            <mxPoint x="420" y="-1360" as="targetPoint" />
          </mxGeometry>
        </mxCell>
        <mxCell id="65f8HicS2MQvYyzbJBjk-12" value="数据返回" style="text;strokeColor=none;fillColor=none;html=1;fontSize=24;fontStyle=1;verticalAlign=middle;align=center;rotation=355;sketch=1;fontFamily=Comic Sans MS;" vertex="1" parent="1">
          <mxGeometry x="585" y="-1415" width="100" height="28" as="geometry" />
        </mxCell>
        <mxCell id="65f8HicS2MQvYyzbJBjk-16" value="" style="endArrow=none;dashed=1;html=1;strokeColor=#66B2FF;strokeWidth=3;fontColor=#FF3333;sketch=1;fontFamily=Comic Sans MS;" edge="1" parent="1">
          <mxGeometry width="50" height="50" relative="1" as="geometry">
            <mxPoint x="420" y="-1343" as="sourcePoint" />
            <mxPoint x="880" y="-1343" as="targetPoint" />
          </mxGeometry>
        </mxCell>
        <mxCell id="65f8HicS2MQvYyzbJBjk-17" value="关闭连接" style="text;strokeColor=none;fillColor=none;html=1;fontSize=20;fontStyle=1;verticalAlign=middle;align=center;rotation=0;sketch=1;fontFamily=Comic Sans MS;" vertex="1" parent="1">
          <mxGeometry x="576.25" y="-1345" width="110" height="28" as="geometry" />
        </mxCell>
        <mxCell id="65f8HicS2MQvYyzbJBjk-18" value="" style="endArrow=classic;html=1;strokeWidth=3;fontColor=#FF3333;strokeColor=#66B2FF;sketch=1;fontFamily=Comic Sans MS;" edge="1" parent="1">
          <mxGeometry width="50" height="50" relative="1" as="geometry">
            <mxPoint x="422.5" y="-1260" as="sourcePoint" />
            <mxPoint x="882.5" y="-1230" as="targetPoint" />
          </mxGeometry>
        </mxCell>
        <mxCell id="65f8HicS2MQvYyzbJBjk-19" value="发送请求" style="text;strokeColor=none;fillColor=none;html=1;fontSize=24;fontStyle=1;verticalAlign=middle;align=center;rotation=5;sketch=1;fontFamily=Comic Sans MS;" vertex="1" parent="1">
          <mxGeometry x="593.5" y="-1290" width="82.5" height="38" as="geometry" />
        </mxCell>
        <mxCell id="65f8HicS2MQvYyzbJBjk-20" value="" style="endArrow=classic;html=1;strokeColor=#66B2FF;strokeWidth=3;fontColor=#FF3333;sketch=1;fontFamily=Comic Sans MS;" edge="1" parent="1">
          <mxGeometry width="50" height="50" relative="1" as="geometry">
            <mxPoint x="876" y="-1220" as="sourcePoint" />
            <mxPoint x="422.5" y="-1180" as="targetPoint" />
          </mxGeometry>
        </mxCell>
        <mxCell id="65f8HicS2MQvYyzbJBjk-21" value="数据返回" style="text;strokeColor=none;fillColor=none;html=1;fontSize=24;fontStyle=1;verticalAlign=middle;align=center;rotation=355;sketch=1;fontFamily=Comic Sans MS;" vertex="1" parent="1">
          <mxGeometry x="573" y="-1230" width="100" height="28" as="geometry" />
        </mxCell>
        <mxCell id="65f8HicS2MQvYyzbJBjk-22" value="" style="endArrow=none;dashed=1;html=1;strokeColor=#66B2FF;strokeWidth=3;fontColor=#FF3333;sketch=1;fontFamily=Comic Sans MS;" edge="1" parent="1">
          <mxGeometry width="50" height="50" relative="1" as="geometry">
            <mxPoint x="422.5" y="-1163" as="sourcePoint" />
            <mxPoint x="882.5" y="-1163" as="targetPoint" />
          </mxGeometry>
        </mxCell>
        <mxCell id="65f8HicS2MQvYyzbJBjk-23" value="关闭连接" style="text;strokeColor=none;fillColor=none;html=1;fontSize=20;fontStyle=1;verticalAlign=middle;align=center;rotation=0;sketch=1;fontFamily=Comic Sans MS;" vertex="1" parent="1">
          <mxGeometry x="569.75" y="-1165" width="110" height="28" as="geometry" />
        </mxCell>
        <mxCell id="65f8HicS2MQvYyzbJBjk-24" value="" style="endArrow=none;dashed=1;html=1;dashPattern=1 3;strokeWidth=2;fontSize=20;fontColor=#FF3333;sketch=1;fontFamily=Comic Sans MS;" edge="1" parent="1">
          <mxGeometry width="50" height="50" relative="1" as="geometry">
            <mxPoint x="630.75" y="-1050" as="sourcePoint" />
            <mxPoint x="630.75" y="-1130" as="targetPoint" />
          </mxGeometry>
        </mxCell>
        <mxCell id="65f8HicS2MQvYyzbJBjk-25" value="" style="endArrow=classic;html=1;strokeWidth=3;fontColor=#FF3333;strokeColor=#66B2FF;sketch=1;fontFamily=Comic Sans MS;" edge="1" parent="1">
          <mxGeometry width="50" height="50" relative="1" as="geometry">
            <mxPoint x="432.5" y="-1020" as="sourcePoint" />
            <mxPoint x="892.5" y="-990" as="targetPoint" />
          </mxGeometry>
        </mxCell>
        <mxCell id="65f8HicS2MQvYyzbJBjk-26" value="发送请求" style="text;strokeColor=none;fillColor=none;html=1;fontSize=24;fontStyle=1;verticalAlign=middle;align=center;rotation=5;sketch=1;fontFamily=Comic Sans MS;" vertex="1" parent="1">
          <mxGeometry x="603.5" y="-1050" width="82.5" height="38" as="geometry" />
        </mxCell>
        <mxCell id="65f8HicS2MQvYyzbJBjk-27" value="" style="shape=curlyBracket;whiteSpace=wrap;html=1;rounded=1;fontSize=20;strokeWidth=3;fillColor=#f8cecc;strokeColor=#b85450;sketch=1;fontFamily=Comic Sans MS;" vertex="1" parent="1">
          <mxGeometry x="372" y="-1437" width="20" height="177" as="geometry" />
        </mxCell>
        <mxCell id="65f8HicS2MQvYyzbJBjk-31" value="周期性&lt;br&gt;发送" style="whiteSpace=wrap;html=1;shape=mxgraph.basic.oval_callout;strokeWidth=3;fontSize=25;flipH=1;fontStyle=1;fillColor=#ffe6cc;strokeColor=#d79b00;sketch=1;fontFamily=Comic Sans MS;" vertex="1" parent="1">
          <mxGeometry x="207" y="-1447" width="153" height="120" as="geometry" />
        </mxCell>
      </root>
    </mxGraphModel>
  </diagram>
</mxfile>
